<?xml version="1.0" encoding="utf-8"?>
<!-- Generator: Adobe Illustrator 24.2.0, SVG Export Plug-In . SVG Version: 6.00 Build 0)  -->
<!DOCTYPE svg PUBLIC "-//W3C//DTD SVG 1.1//EN" "http://www.w3.org/Graphics/SVG/1.1/DTD/svg11.dtd" [
	<!ENTITY ns_extend "http://ns.adobe.com/Extensibility/1.0/">
	<!ENTITY ns_ai "http://ns.adobe.com/AdobeIllustrator/10.0/">
	<!ENTITY ns_graphs "http://ns.adobe.com/Graphs/1.0/">
	<!ENTITY ns_vars "http://ns.adobe.com/Variables/1.0/">
	<!ENTITY ns_imrep "http://ns.adobe.com/ImageReplacement/1.0/">
	<!ENTITY ns_sfw "http://ns.adobe.com/SaveForWeb/1.0/">
	<!ENTITY ns_custom "http://ns.adobe.com/GenericCustomNamespace/1.0/">
	<!ENTITY ns_adobe_xpath "http://ns.adobe.com/XPath/1.0/">
]>
<svg version="1.1" xmlns:x="&ns_extend;" xmlns:i="&ns_ai;" xmlns:graph="&ns_graphs;"
	 xmlns="http://www.w3.org/2000/svg" xmlns:xlink="http://www.w3.org/1999/xlink" x="0px" y="0px" width="750px" height="750px"
	 viewBox="0 0 750 750" enable-background="new 0 0 750 750" xml:space="preserve">
<metadata>
	<sfw  xmlns="&ns_sfw;">
		<slices></slices>
		<sliceSourceBounds  bottomLeftOrigin="true" height="9993.52" width="9472.192" x="-5221" y="-1726"></sliceSourceBounds>
	</sfw>
</metadata>
<g id="FILL-BACKGROUND">
	<rect fill="#FFFFFF" width="750" height="750"/>
</g>
<g id="N-TEXT">
</g>
<g id="AG-DIAGRAM">
	<g id="POLYLINE_769_">
		<g>
			<g>
				
					<line fill="none" stroke="#FF6B6B" stroke-width="3.25" stroke-linecap="round" stroke-linejoin="round" x1="290.001" y1="669.779" x2="292.001" y2="669.779"/>
				
					<line fill="none" stroke="#FF6B6B" stroke-width="3.25" stroke-linecap="round" stroke-linejoin="round" stroke-dasharray="4.0266,7.0465" x1="299.048" y1="669.779" x2="439.476" y2="669.779"/>
				
					<line fill="none" stroke="#FF6B6B" stroke-width="3.25" stroke-linecap="round" stroke-linejoin="round" x1="442.999" y1="669.779" x2="444.999" y2="669.779"/>
			</g>
		</g>
	</g>
</g>
<g id="AG-PEOPLE">
	<g id="POLYLINE_795_">
		
			<path fill="none" stroke="#FF6B6B" stroke-width="2.75" stroke-linecap="round" stroke-linejoin="round" stroke-miterlimit="10" d="
			M405.579,225.33c-0.157,1.106-0.327,2.441-0.404,3.551c-0.058,0.83-0.274,1.656-0.629,2.382"/>
	</g>
	<g id="POLYLINE_794_">
		
			<path fill="none" stroke="#FF6B6B" stroke-width="2.75" stroke-linecap="round" stroke-linejoin="round" stroke-miterlimit="10" d="
			M358.063,207.09c0.193-1.875,0.677-3.737,1.445-5.459c0.374-0.827,0.819-1.635,1.371-2.358c0.507-0.658,1.012-1.129,1.628-1.621
			c0.755-0.585,1.78-1.311,2.407-2.005c0.66-0.699,1.449-1.671,2.138-2.332c0.513-0.503,1.071-0.974,1.662-1.384
			c1.535-1.072,3.32-1.741,5.11-2.254c2.575-0.714,5.267-1.13,7.942-1.11c1.69,0.009,3.38,0.306,4.975,0.864
			c1.721,0.586,3.454,1.488,5.265,1.769c1.516,0.261,3.231,0.447,4.578,1.232c0.79,0.447,1.474,1.066,2.097,1.721
			c1.323,1.378,2.855,3.627,4,5.178"/>
	</g>
	<g id="POLYLINE_793_">
		
			<path fill="none" stroke="#FF6B6B" stroke-width="2.75" stroke-linecap="round" stroke-linejoin="round" stroke-miterlimit="10" d="
			M361.726,230.763c-0.718-0.892-1.492-1.922-1.813-3.014c-0.307-1.004-0.296-2.006-0.276-3.036l0.094-2.461
			c0.031-1.116,0.011-2.262-0.134-3.37c-0.272-2.134-0.981-4.76-1.321-6.884"/>
	</g>
	<g id="POLYLINE_792_">
		
			<path fill="none" stroke="#FF6B6B" stroke-width="2.75" stroke-linecap="round" stroke-linejoin="round" stroke-miterlimit="10" d="
			M431.101,263.708c-0.186,1.113-0.558,2.325-1.199,3.243c-0.122,0.171-0.234,0.301-0.332,0.403
			c-0.047,0.047-0.071,0.071-0.071,0.071c-0.048,0.045-0.072,0.067-0.072,0.067c-0.049,0.043-0.074,0.063-0.074,0.063
			c-0.05,0.04-0.075,0.059-0.075,0.059c-0.051,0.037-0.077,0.055-0.077,0.055c-0.052,0.034-0.078,0.051-0.078,0.051
			c-0.053,0.032-0.08,0.047-0.08,0.047c-0.068,0.036-0.083,0.043-0.083,0.043c-0.058,0.027-0.072,0.033-0.072,0.033
			c-0.059,0.024-0.073,0.029-0.073,0.029c-0.059,0.021-0.074,0.026-0.074,0.026c-0.06,0.018-0.076,0.023-0.076,0.023
			c-0.061,0.016-0.077,0.019-0.077,0.019c-0.046,0.01-0.078,0.016-0.078,0.016c-0.063,0.01-0.094,0.015-0.094,0.015
			c-0.064,0.007-0.096,0.01-0.096,0.01c-0.065,0.004-0.097,0.006-0.097,0.006c-0.065,0.001-0.098,0.001-0.098,0.001
			c-0.066-0.002-0.1-0.004-0.1-0.004c-0.067-0.005-0.101-0.008-0.101-0.008c-0.068-0.008-0.102-0.012-0.102-0.012
			c-0.069-0.011-0.103-0.017-0.103-0.017c-0.934-0.188-1.685-0.701-2.415-1.27c-1.303-1.051-2.402-2.357-3.43-3.67
			c-2.211-2.841-4.836-7.033-7.058-9.866l-3.17-3.969c-0.887-1.147-1.747-2.345-2.392-3.646c-0.668-1.332-1.124-2.776-1.462-4.224
			c-0.555-2.404-0.902-5.055-1.229-7.506c-0.824-6.294-2.785-26.632-3.656-32.847c-0.39-3.182-1.911-12.082-2.453-15.375
			c-1.552-9.03-3.46-20.057-5.485-28.943c-0.897-3.887-1.948-8.166-3.185-11.954c-0.682-2.088-1.474-4.19-2.48-6.146
			c-0.815-1.597-1.809-3.13-2.912-4.543l-2.425-3.026l-2.747-3.581c-0.318-0.4-0.811-1.013-1.14-1.396"/>
	</g>
	<g id="POLYLINE_791_">
		
			<path fill="none" stroke="#FF6B6B" stroke-width="2.75" stroke-linecap="round" stroke-linejoin="round" stroke-miterlimit="10" d="
			M397.934,246.097c-0.897,2.972-1.455,6.086-1.509,9.193c-0.04,2.295,0.233,4.616,0.737,6.853"/>
	</g>
	<g id="POLYLINE_790_">
		
			<path fill="none" stroke="#FF6B6B" stroke-width="2.75" stroke-linecap="round" stroke-linejoin="round" stroke-miterlimit="10" d="
			M399.749,244.174c-0.341,0.252-0.566,0.496-0.835,0.786c-0.802,0.884-2.097,2.509-2.909,3.366
			c-1.544,1.673-3.294,3.216-5.339,4.246c-2.57,1.289-5.503,1.718-8.356,1.638c-2.353-0.075-4.712-0.507-6.93-1.296
			c-1.548-0.556-3.052-1.294-4.375-2.277c-1.542-1.136-2.756-2.66-3.783-4.263c-0.597-0.905-1.439-2.456-2.191-3.217
			c-0.07-0.067-0.105-0.1-0.105-0.1c-0.053-0.046-0.07-0.061-0.07-0.061c-0.053-0.043-0.071-0.057-0.071-0.057
			c-0.053-0.04-0.071-0.053-0.071-0.053c-0.053-0.037-0.071-0.049-0.071-0.049c-0.054-0.034-0.072-0.045-0.072-0.045
			c-0.056-0.032-0.076-0.042-0.076-0.042c-0.06-0.03-0.081-0.039-0.081-0.039c-0.061-0.026-0.081-0.034-0.081-0.034
			c-0.061-0.023-0.082-0.03-0.082-0.03c-0.062-0.02-0.082-0.026-0.082-0.026c-0.062-0.017-0.083-0.022-0.083-0.022
			c-0.18-0.042-0.326-0.058-0.465-0.071l-0.519-0.039c-0.144-0.012-0.33-0.037-0.437-0.06c-0.066-0.014-0.087-0.02-0.087-0.02
			c-0.066-0.017-0.087-0.023-0.087-0.023c-0.066-0.02-0.087-0.027-0.087-0.027c-0.065-0.023-0.087-0.031-0.087-0.031
			c-0.065-0.027-0.087-0.036-0.087-0.036c-0.065-0.03-0.087-0.041-0.087-0.041c-0.065-0.034-0.087-0.046-0.087-0.046
			c-0.065-0.039-0.086-0.052-0.086-0.052c-0.065-0.043-0.086-0.058-0.086-0.058c-0.064-0.048-0.086-0.065-0.086-0.065
			c-0.057-0.047-0.076-0.064-0.076-0.064c-0.057-0.052-0.076-0.069-0.076-0.069c-0.492-0.485-0.784-1.019-1.071-1.588
			c-0.326-0.672-0.585-1.386-0.793-2.102c-0.243-0.844-0.422-1.718-0.505-2.593c-0.069-0.729-0.074-1.58,0.109-2.26
			c0.024-0.087,0.036-0.122,0.048-0.162c0.024-0.069,0.036-0.103,0.036-0.103c0.026-0.067,0.039-0.099,0.039-0.099
			c0.028-0.064,0.042-0.096,0.042-0.096c0.029-0.062,0.044-0.092,0.044-0.092c0.031-0.06,0.047-0.089,0.047-0.089
			c0.033-0.057,0.049-0.086,0.049-0.086c0.034-0.055,0.052-0.083,0.052-0.083c0.087-0.133,0.166-0.231,0.228-0.304
			c0.484-0.569,1.183-0.958,1.717-1.44c0.458-0.396,0.795-0.905,1.021-1.403c0.349-0.772,0.541-1.537,0.698-2.356
			c0.459-2.316,0.647-7.044,0.844-9.457c0.29-3.634,0.697-7.339,1.766-10.836c0.67-2.164,1.619-4.29,3.081-6.039
			c3.748-4.455,10.007-6.033,15.633-5.488c3.019,0.305,6.011,1.27,8.513,3.01c4.645,3.185,6.606,8.886,7.418,14.235
			c0.774,4.854,0.592,10.462,0.77,15.371c0.048,0.823,0.074,1.752,0.3,2.536c0.022,0.068,0.03,0.089,0.03,0.089
			c0.024,0.062,0.032,0.082,0.032,0.082c0.025,0.056,0.034,0.074,0.034,0.074c0.036,0.066,0.04,0.073,0.04,0.073
			c0.048,0.069,0.053,0.076,0.053,0.076c0.067,0.068,0.073,0.072,0.073,0.072c0.068,0.04,0.073,0.042,0.073,0.042
			c0.067,0.016,0.073,0.017,0.073,0.017c0.069-0.003,0.073-0.004,0.073-0.004c0.062-0.015,0.07-0.018,0.07-0.018
			c0.069-0.028,0.078-0.032,0.078-0.032c0.054-0.028,0.072-0.038,0.072-0.038c0.056-0.033,0.075-0.045,0.075-0.045
			c0.13-0.084,0.311-0.216,0.422-0.288c0.063-0.04,0.085-0.052,0.085-0.052c0.064-0.036,0.085-0.047,0.085-0.047
			c0.064-0.031,0.075-0.036,0.075-0.036c0.065-0.026,0.075-0.03,0.075-0.03c0.065-0.02,0.076-0.023,0.076-0.023
			c0.065-0.013,0.075-0.014,0.075-0.014c0.064-0.005,0.072-0.005,0.072-0.005c0.064,0.002,0.071,0.003,0.071,0.003
			c0.064,0.01,0.071,0.011,0.071,0.011c0.063,0.017,0.07,0.019,0.07,0.019c0.07,0.027,0.077,0.03,0.077,0.03
			c0.062,0.031,0.076,0.039,0.076,0.039c0.068,0.043,0.082,0.053,0.082,0.053c0.067,0.052,0.08,0.063,0.08,0.063
			c0.066,0.06,0.079,0.073,0.079,0.073c0.064,0.068,0.077,0.082,0.077,0.082c0.05,0.06,0.063,0.075,0.063,0.075
			c0.049,0.065,0.061,0.082,0.061,0.082c0.493,0.731,0.653,1.535,0.75,2.362c0.106,1.029,0.052,2.08-0.075,3.105
			c-0.203,1.537-0.575,3.073-1.178,4.504c-0.425,0.977-0.998,2.039-1.788,2.728c-0.058,0.047-0.077,0.062-0.077,0.062
			c-0.057,0.043-0.076,0.057-0.076,0.057c-0.056,0.039-0.075,0.051-0.075,0.051c-0.055,0.035-0.074,0.046-0.074,0.046
			c-0.055,0.031-0.073,0.04-0.073,0.04c-0.054,0.027-0.072,0.035-0.072,0.035c-0.053,0.022-0.07,0.029-0.07,0.029
			c-0.066,0.022-0.079,0.026-0.079,0.026c-0.065,0.017-0.077,0.019-0.077,0.019c-0.063,0.012-0.076,0.014-0.076,0.014
			c-0.063,0.008-0.075,0.009-0.075,0.009c-0.05,0.003-0.074,0.005-0.074,0.005c-0.178,0.006-0.373-0.012-0.522-0.005
			c-0.052,0.003-0.078,0.005-0.078,0.005c-0.066,0.007-0.08,0.009-0.08,0.009c-0.068,0.011-0.082,0.014-0.082,0.014
			c-0.07,0.016-0.084,0.02-0.084,0.02c-0.057,0.017-0.072,0.022-0.072,0.022c-0.059,0.021-0.074,0.027-0.074,0.027
			c-0.06,0.026-0.076,0.033-0.076,0.033c-0.062,0.031-0.078,0.039-0.078,0.039c-0.064,0.036-0.08,0.046-0.08,0.046
			C399.799,244.139,399.783,244.15,399.749,244.174z"/>
	</g>
	<g id="POLYLINE_789_">
		
			<path fill="none" stroke="#FF6B6B" stroke-width="2.75" stroke-linecap="round" stroke-linejoin="round" stroke-miterlimit="10" d="
			M368.579,261.936c-0.268-3.824-0.931-11.595-1.299-15.428"/>
	</g>
	<g id="POLYLINE_788_">
		
			<path fill="none" stroke="#FF6B6B" stroke-width="2.75" stroke-linecap="round" stroke-linejoin="round" stroke-miterlimit="10" d="
			M354.917,238.062c0.635,0.933,1.528,2.151,2.01,3.159c0.453,0.903,0.764,1.886,1.031,2.858l1.114,4.283
			c0.707,2.575,1.664,5.128,3.183,7.341c1.107,1.64,2.437,3.139,3.928,4.439c1.265,1.095,2.657,2.074,4.187,2.763
			c0.882,0.396,1.824,0.67,2.78,0.817c1.767,0.29,4.362,0.181,6.165,0.221c4.447,0.086,9.677,0.545,14.036-0.329
			c1.131-0.235,2.26-0.573,3.272-1.139c3.214-1.784,4.223-5.522,5.638-8.644c1.063-2.361,2.75-5.308,3.585-7.753
			c0.794-2.283,1.209-4.7,1.477-7.096"/>
	</g>
	<g id="POLYLINE_787_">
		
			<path fill="none" stroke="#FF6B6B" stroke-width="2.75" stroke-linecap="round" stroke-linejoin="round" stroke-miterlimit="10" d="
			M378.091,82.899c0.323-0.583,0.717-1.104,1.118-1.543c0.43-0.462,0.876-0.855,1.383-1.106c0.054-0.025,0.082-0.038,0.082-0.038
			c0.054-0.023,0.081-0.034,0.081-0.034c0.054-0.02,0.08-0.03,0.08-0.03c0.053-0.017,0.08-0.025,0.08-0.025
			c0.053-0.014,0.079-0.021,0.079-0.021c0.065-0.014,0.078-0.016,0.078-0.016c0.064-0.01,0.077-0.012,0.077-0.012
			c0.064-0.006,0.076-0.007,0.076-0.007c0.068-0.002,0.079-0.002,0.079-0.002c0.063,0.002,0.074,0.003,0.074,0.003
			c0.062,0.007,0.073,0.008,0.073,0.008c0.061,0.011,0.072,0.013,0.072,0.013c0.06,0.015,0.07,0.017,0.07,0.017
			c0.069,0.022,0.079,0.025,0.079,0.025c0.068,0.027,0.077,0.031,0.077,0.031c0.066,0.032,0.085,0.042,0.085,0.042
			c0.055,0.032,0.074,0.043,0.074,0.043c0.054,0.036,0.072,0.049,0.072,0.049c0.053,0.04,0.07,0.054,0.07,0.054
			c0.069,0.059,0.085,0.075,0.085,0.075c0.066,0.065,0.082,0.082,0.082,0.082c0.048,0.053,0.064,0.071,0.064,0.071
			c0.047,0.057,0.062,0.076,0.062,0.076c0.045,0.06,0.06,0.081,0.06,0.081c0.044,0.063,0.058,0.085,0.058,0.085
			c0.042,0.067,0.056,0.089,0.056,0.089c0.435,0.753,0.572,1.551,0.638,2.355c0.073,0.993,0.001,2.035-0.081,3.028
			c-0.208,2.277-0.557,4.976-0.471,7.244c0.042,1.322,0.22,2.651,0.498,3.943c0.661,3.06,1.879,6.001,3.231,8.815
			c2.212,4.65,6.801,12.383,9.168,16.994c0.855,1.653,1.709,3.749,2.437,5.47c0.46,1.064,1.037,2.258,1.567,3.289
			c3.407,6.436,7.599,13.952,10.153,20.723c2.994,7.673,5.136,16.01,7.006,24.032l6.732,30.745l6.029,24.921
			c1.006,4.548,1.88,9.246,2.193,13.895c0.417,5.728,0.051,11.634-0.517,17.344"/>
	</g>
	<g id="POLYLINE_786_">
		
			<path fill="none" stroke="#FF6B6B" stroke-width="2.75" stroke-linecap="round" stroke-linejoin="round" stroke-miterlimit="10" d="
			M419.332,353.466c0.222-1.132,0.603-2.855,0.712-3.978c0.101-0.901,0.124-1.84,0.114-2.747c-0.085-3.77-0.358-8.209-0.036-11.953
			c0.347-4.704,1.54-9.373,2.838-13.896c1.782-5.931,5.565-17.644,6.867-23.514c1.667-7.308,2.927-14.877,3.133-22.379
			c0.03-1.772-0.001-3.594-0.254-5.349c-0.162-1.147-0.44-2.297-0.782-3.404l-0.823-2.54"/>
	</g>
	<g id="POLYLINE_785_">
		
			<path fill="none" stroke="#FF6B6B" stroke-width="2.75" stroke-linecap="round" stroke-linejoin="round" stroke-miterlimit="10" d="
			M331.79,255.647c-0.413,1.667-1.05,3.847-1.25,5.531c-0.188,1.416-0.195,2.872-0.068,4.293c0.221,2.477,0.759,5.07,1.283,7.503
			c1.479,6.499,3.713,15.177,4.371,21.753c0.484,4.273,0.957,11.248,1.919,15.365c0.401,1.807,1.014,3.586,1.738,5.289l2.164,4.957
			c0.836,2.019,1.522,4.131,1.868,6.293c0.503,3.143,0.37,6.402,0.175,9.568c-0.176,2.532-0.75,8.3-0.728,10.754
			c0.006,0.747,0.037,1.513,0.172,2.249c0.101,0.581,0.324,1.254,0.579,1.756c0.348,0.708,0.852,1.407,1.218,2.102"/>
	</g>
	<g id="POLYLINE_784_">
		
			<path fill="none" stroke="#FF6B6B" stroke-width="2.75" stroke-linecap="round" stroke-linejoin="round" stroke-miterlimit="10" d="
			M357.278,192.657c-0.234,2.337-0.107,4.747,0.09,7.085c0.348,3.744,0.971,9.038,0.906,12.748
			c-0.03,4.177-0.581,8.449-1.222,12.575l-1.778,10.429c-0.163,1.041-0.341,2.272-0.432,3.316c-0.141,1.792-0.239,3.886-0.72,5.608
			c-0.403,1.537-0.997,3.076-1.605,4.544c-0.798,1.902-1.717,3.83-2.671,5.658c-1.525,2.887-3.194,5.765-5.21,8.339
			c-0.814,1.02-1.708,2.006-2.759,2.786c-0.925,0.696-2.098,1.232-3.25,1.251c-0.914,0.031-1.816-0.221-2.562-0.67
			c-0.755-0.454-1.319-1.042-1.814-1.745c-1.061-1.543-1.563-3.395-1.934-5.209c-0.65-3.362-0.791-6.862-0.805-10.28
			c0.039-9.746,1.302-19.612,3.034-29.193c1.116-6.185,3.455-16.829,4.553-23.006c0.529-2.885,1.198-8.56,1.58-11.473
			c1.121-8.52,4.226-16.828,7.27-24.827c1.859-4.832,4.884-12.029,6.934-16.832c2.332-5.4,4.928-11.338,7.75-16.487
			c2.634-4.763,5.827-10.024,7.672-15.128c2.254-6.178,3.247-12.788,3.323-19.349c0.03-2.457-0.106-6.352,0.187-8.752
			c0.102-0.811,0.278-1.736,0.644-2.451c0.099-0.192,0.198-0.343,0.292-0.466c0.048-0.061,0.065-0.08,0.065-0.08
			c0.05-0.058,0.067-0.077,0.067-0.077c0.051-0.055,0.069-0.073,0.069-0.073c0.053-0.052,0.071-0.069,0.071-0.069
			c0.054-0.049,0.072-0.065,0.072-0.065c0.055-0.046,0.074-0.061,0.074-0.061c0.056-0.043,0.076-0.057,0.076-0.057
			c0.057-0.041,0.077-0.054,0.077-0.054c0.058-0.038,0.078-0.05,0.078-0.05c0.059-0.035,0.079-0.046,0.079-0.046
			c0.06-0.032,0.08-0.042,0.08-0.042c0.06-0.029,0.08-0.039,0.08-0.039c0.061-0.027,0.081-0.035,0.081-0.035
			c0.061-0.024,0.081-0.031,0.081-0.031c0.061-0.021,0.081-0.028,0.081-0.028c0.061-0.018,0.082-0.024,0.082-0.024
			c0.061-0.016,0.081-0.021,0.081-0.021c0.061-0.013,0.081-0.017,0.081-0.017c0.061-0.01,0.081-0.013,0.081-0.013
			c0.06-0.008,0.08-0.01,0.08-0.01c0.06-0.005,0.079-0.006,0.079-0.006c0.059-0.002,0.079-0.003,0.079-0.003
			c0.058,0,0.078,0.001,0.078,0.001c0.057,0.003,0.076,0.004,0.076,0.004c0.056,0.005,0.075,0.008,0.075,0.008
			c0.055,0.008,0.074,0.011,0.074,0.011c0.054,0.01,0.072,0.014,0.072,0.014c0.07,0.018,0.087,0.023,0.087,0.023
			c0.068,0.022,0.084,0.028,0.084,0.028c0.065,0.026,0.081,0.033,0.081,0.033c0.062,0.03,0.077,0.038,0.077,0.038
			c0.065,0.038,0.074,0.044,0.074,0.044c0.07,0.049,0.079,0.056,0.079,0.056c0.066,0.055,0.074,0.062,0.074,0.062
			c0.062,0.061,0.076,0.077,0.076,0.077c0.057,0.068,0.071,0.085,0.071,0.085c0.04,0.055,0.053,0.074,0.053,0.074
			c0.038,0.059,0.05,0.079,0.05,0.079c0.035,0.063,0.047,0.084,0.047,0.084c0.033,0.066,0.044,0.089,0.044,0.089
			c0.263,0.608,0.305,1.182,0.371,1.802c0.327,5.667,0.703,19.266,1.117,24.77c0.27,4.051,0.898,11.191,0.953,15.172
			c0.015,1.315-0.002,2.684-0.151,3.991c-0.147,1.239-0.43,2.647-1.246,3.6c-0.06,0.068-0.081,0.09-0.081,0.09
			c-0.062,0.066-0.083,0.087-0.083,0.087c-0.064,0.063-0.086,0.083-0.086,0.083c-0.066,0.06-0.089,0.08-0.089,0.08
			c-0.945,0.809-2.17,0.907-3.285,1.279c-0.433,0.132-0.968,0.361-1.314,0.581c-0.475,0.29-0.83,0.663-1.127,1.053
			c-0.624,0.843-0.995,1.739-1.351,2.703c-0.513,1.391-1.253,4.232-1.671,5.692c-0.712,2.487-2.76,8.372-3.465,10.858
			c-0.588,2.016-1.103,4.18-1.474,6.248c-1.142,6.434-1.747,14.026-3.829,20.235l-2.027,6.162
			C358.151,187.84,357.516,190.238,357.278,192.657z"/>
	</g>
	<g id="POLYLINE_765_">
		
			<path fill="none" stroke="#FF6B6B" stroke-width="2.75" stroke-linecap="round" stroke-linejoin="round" stroke-miterlimit="10" d="
			M371.79,668.217c1.01,0.556,2.132,0.892,3.258,1.121c1.692,0.337,3.439,0.438,5.162,0.441c0.659-0.005,11.28,0.015,11.639-0.016
			c0.875-0.027,1.79-0.082,2.656-0.208c0.817-0.124,1.753-0.313,2.443-0.749c0.07-0.047,0.093-0.063,0.093-0.063
			c0.067-0.049,0.089-0.066,0.089-0.066c0.066-0.052,0.087-0.07,0.087-0.07c1.131-0.972,1.481-2.425,1.679-3.808
			c0.127-1.002,0.189-2.154-0.181-3.08c-0.029-0.068-0.039-0.091-0.039-0.091c-0.031-0.066-0.042-0.088-0.042-0.088
			c-0.033-0.063-0.044-0.084-0.044-0.084c-0.035-0.061-0.047-0.081-0.047-0.081c-0.037-0.059-0.049-0.078-0.049-0.078
			c-0.039-0.056-0.052-0.074-0.052-0.074c-0.041-0.054-0.055-0.071-0.055-0.071c-0.057-0.068-0.072-0.085-0.072-0.085
			c-0.062-0.067-0.078-0.084-0.078-0.084c-0.67-0.652-1.443-0.976-2.266-1.306c-1.426-0.56-3.045-0.797-4.359-1.609
			c-0.068-0.047-0.084-0.059-0.084-0.059c-0.062-0.047-0.076-0.059-0.076-0.059c-0.068-0.058-0.08-0.07-0.08-0.07
			c-0.068-0.069-0.079-0.081-0.079-0.081c-0.055-0.068-0.059-0.074-0.059-0.074c-0.042-0.068-0.045-0.073-0.045-0.073
			c-0.029-0.068-0.034-0.08-0.034-0.08c-0.022-0.065-0.03-0.094-0.03-0.094c-0.017-0.061-0.025-0.094-0.025-0.094
			c-0.219-1.022-0.24-2.127-0.3-3.167c-0.085-1.593-0.048-3.224,0.266-4.79c0.138-0.706,0.329-1.419,0.567-2.098
			c0.286-0.743,0.528-1.524,0.722-2.297c0.913-3.679,1.54-7.745,2.132-11.494"/>
	</g>
	<g id="POLYLINE_756_">
		
			<path fill="none" stroke="#FF6B6B" stroke-width="2.75" stroke-linecap="round" stroke-linejoin="round" stroke-miterlimit="10" d="
			M380.114,628.766c-0.552,2.706-1.132,5.486-2.292,8.006c-0.275,0.606-0.642,1.088-0.934,1.669c-0.551,1.089-0.9,2.279-1.155,3.468
			c-0.317,1.415-0.42,2.89-0.62,4.323c-0.725,4.676-2.095,9.453-3.401,14.001"/>
	</g>
	<g id="POLYLINE_755_">
		
			<path fill="none" stroke="#FF6B6B" stroke-width="2.75" stroke-linecap="round" stroke-linejoin="round" stroke-miterlimit="10" d="
			M350.866,630.882c0.924,4.016,1.692,8.157,1.824,12.283c0.084,2.529-0.23,5.16-0.568,7.664c-0.16,1.058-0.352,2.163-0.637,3.194
			c-0.102,0.364-0.238,0.807-0.395,1.134c-0.185,0.394-0.427,0.766-0.7,1.104c-0.808,0.988-1.831,1.702-2.926,2.321
			c-0.873,0.481-1.811,0.879-2.63,1.454c-1.067,0.723-2.11,1.76-2.29,3.046c-0.069,0.617-0.062,1.196-0.037,1.807
			c0.041,0.799,0.179,1.651,0.467,2.391c0.025,0.06,0.03,0.072,0.03,0.072c0.028,0.059,0.034,0.07,0.034,0.07
			c0.039,0.069,0.046,0.081,0.046,0.081c0.036,0.057,0.051,0.079,0.051,0.079c0.049,0.067,0.066,0.089,0.066,0.089
			c0.054,0.065,0.073,0.086,0.073,0.086c0.06,0.063,0.081,0.084,0.081,0.084c0.065,0.062,0.088,0.082,0.088,0.082
			c0.047,0.04,0.071,0.06,0.071,0.06c0.05,0.04,0.075,0.059,0.075,0.059c0.858,0.616,1.895,0.841,2.901,1.04
			c1.292,0.231,2.666,0.33,3.975,0.426c5.729,0.378,13.928,0.262,19.732,0.258c0.049-0.006,0.074-0.009,0.074-0.009
			c0.048-0.007,0.072-0.011,0.072-0.011c0.047-0.009,0.07-0.014,0.07-0.014c0.069-0.016,0.092-0.022,0.092-0.022
			c0.067-0.02,0.089-0.027,0.089-0.027c0.065-0.023,0.086-0.031,0.086-0.031c0.063-0.027,0.083-0.036,0.083-0.036
			c0.061-0.03,0.081-0.041,0.081-0.041c0.059-0.033,0.078-0.045,0.078-0.045c0.057-0.037,0.075-0.049,0.075-0.049
			c0.055-0.04,0.072-0.054,0.072-0.054c0.07-0.059,0.087-0.074,0.087-0.074c0.066-0.064,0.082-0.081,0.082-0.081
			c0.063-0.07,0.078-0.088,0.078-0.088c0.045-0.056,0.059-0.075,0.059-0.075c0.043-0.06,0.057-0.08,0.057-0.08
			c0.041-0.063,0.054-0.084,0.054-0.084c0.039-0.066,0.051-0.089,0.051-0.089c0.344-0.647,0.392-1.292,0.461-1.972
			c0.086-0.981,0.096-2.003,0.06-2.987c-0.07-1.957-0.308-3.935-0.803-5.832c-0.162-0.633-0.372-1.333-0.582-1.952
			c-0.166-0.466-0.338-0.969-0.461-1.447c-0.589-2.295-0.779-4.712-0.902-7.073c-0.071-1.775-0.101-3.658-0.284-5.426
			c-0.162-1.62-0.41-3.256-0.861-4.822c-0.231-0.845-0.608-1.656-0.887-2.485c-0.709-2.095-1.046-4.312-1.104-6.519"/>
	</g>
	<g id="POLYLINE_754_">
		
			<path fill="none" stroke="#FF6B6B" stroke-width="2.75" stroke-linecap="round" stroke-linejoin="round" stroke-miterlimit="10" d="
			M378.969,435.738c0.184,6.616,0.075,13.417-0.642,19.996c-0.65,6.607-2.985,16.401-4.327,22.985
			c-2.42,12.176-4.54,29.96-6.476,42.263c-1.106,7.416-3.325,16.704-3.742,24.167c-0.179,2.962-0.189,6.352-0.155,9.329
			c0.223,12.904,1.156,28.412,2.07,41.309c0.453,6.199,1.798,19.806,1.948,25.835c0.009,1.216-0.023,2.461-0.215,3.664
			c-0.102,0.652-0.287,1.389-0.554,1.972c-0.256,0.584-0.659,1.097-1.097,1.458c-0.721,0.592-1.497,0.884-2.357,1.163
			c-1.147,0.352-2.358,0.608-3.537,0.828c-2.022,0.36-4.097,0.618-6.154,0.591c-1.121-0.031-2.391-0.115-3.379-0.651
			c-0.069-0.041-0.102-0.062-0.102-0.062c-0.065-0.043-0.097-0.065-0.097-0.065c-0.062-0.045-0.091-0.068-0.091-0.068
			c-0.058-0.047-0.086-0.071-0.086-0.071c-0.055-0.049-0.081-0.074-0.081-0.074c-0.051-0.051-0.076-0.078-0.076-0.078
			c-0.048-0.053-0.072-0.081-0.072-0.081c-0.045-0.056-0.067-0.084-0.067-0.084c-0.042-0.058-0.063-0.087-0.063-0.087
			c-0.039-0.06-0.058-0.09-0.058-0.09c-0.037-0.062-0.054-0.093-0.054-0.093c-0.034-0.064-0.051-0.096-0.051-0.096
			c-0.032-0.066-0.047-0.1-0.047-0.1c-0.333-0.785-0.351-1.607-0.403-2.437c-0.098-3.633-0.722-7.344-1.41-10.909
			c-1.284-6.545-3.12-13.604-4.947-20.03c-3.198-11.194-7.875-24.449-8.394-36.096c-0.258-5.167,0.298-10.408,1.087-15.511
			c0.483-2.966,2.258-13.014,2.566-15.802c0.3-2.382,0.501-4.882,0.575-7.281c0.287-8.647-0.998-17.341-2.744-25.791
			c-2.749-12.657-6.513-28.35-7.702-41.127c-0.992-9.889-1.198-19.965-0.631-29.887c0.525-8.446,1.544-17.009,3.863-25.166
			c0.967-3.382,2.298-6.751,3.759-9.949c2.364-5.126,5.462-10.894,6.665-16.413c0.833-3.495,1.25-9.287,1.645-12.905
			c0.199-1.662,0.429-3.373,0.9-4.982c0.323-1.095,0.832-2.292,1.679-3.054c0.802-0.737,1.794-1.069,2.803-1.235
			c1.157-0.186,2.37-0.171,3.539-0.144c8.576,0.358,21.724,0.954,30.152,0.885c6.726,0.018,19.122-0.548,25.836-0.463
			c2.257,0.041,4.608,0.119,6.842,0.448c1.248,0.205,2.652,0.455,3.698,1.17c0.041,0.03,0.082,0.061,0.082,0.061
			c0.039,0.031,0.077,0.062,0.077,0.062c0.037,0.032,0.073,0.064,0.073,0.064c0.058,0.055,0.072,0.069,0.072,0.069
			c0.054,0.056,0.068,0.071,0.068,0.071c0.051,0.058,0.063,0.072,0.063,0.072c0.047,0.059,0.058,0.074,0.058,0.074
			c0.043,0.06,0.054,0.075,0.054,0.075c0.04,0.061,0.049,0.077,0.049,0.077c0.036,0.063,0.045,0.079,0.045,0.079
			c0.033,0.064,0.041,0.08,0.041,0.08c0.03,0.065,0.037,0.082,0.037,0.082c0.027,0.067,0.033,0.083,0.033,0.083
			c0.024,0.068,0.029,0.085,0.029,0.085c0.176,0.578,0.113,1.134,0.027,1.699c-0.219,1.214-0.617,2.608-0.782,3.824
			c-0.312,2.135-0.365,4.349-0.319,6.505c0.108,4.305,0.647,8.717,1.395,12.959c0.936,5.397,3.469,15.184,4.552,20.588
			c2.047,9.721,2.847,19.831,2.93,29.757c0.114,13.853-1.268,27.884-4.183,41.429c-1.107,5.282-2.67,11.397-4.107,16.616
			c-1.736,6.117-4.751,15.978-6.064,22.102c-0.713,3.323-1.258,6.76-1.431,10.156c-0.121,2.313-0.045,4.699,0.143,7.007
			c0.456,5.709,1.919,12.967,2.453,18.67c0.354,3.635,0.405,7.371,0.191,11.017c-0.363,6.279-1.501,12.597-2.908,18.721
			c-3.077,13.324-8.612,29.84-12.137,43.08c0,0-0.627,2.45-0.627,2.45s-0.283,1.165-0.283,1.165l-0.261,1.122
			c0,0-0.237,1.077-0.237,1.077l-0.213,1.03c0,0-0.168,0.87-0.168,0.87l-0.555,3.072c0,0-0.065,0.336-0.065,0.336
			s-0.066,0.325-0.066,0.325s-0.068,0.314-0.068,0.314s-0.07,0.303-0.07,0.303s-0.036,0.147-0.036,0.147s-0.037,0.144-0.037,0.144
			l-0.037,0.141l-0.038,0.139c-0.194,0.697-0.477,1.444-0.91,1.983c-0.05,0.061-0.067,0.081-0.067,0.081
			c-0.052,0.059-0.069,0.078-0.069,0.078c-0.054,0.056-0.072,0.074-0.072,0.074c-0.055,0.054-0.074,0.071-0.074,0.071
			c-0.057,0.051-0.077,0.068-0.077,0.068c-0.059,0.049-0.079,0.065-0.079,0.065c-0.061,0.046-0.082,0.062-0.082,0.062
			c-0.063,0.044-0.084,0.058-0.084,0.058c-0.065,0.042-0.087,0.055-0.087,0.055c-0.067,0.039-0.09,0.052-0.09,0.052
			c-0.54,0.294-1.12,0.366-1.67,0.384c-0.573,0.014-1.155-0.048-1.72-0.141c-1.646-0.279-3.269-0.823-4.83-1.407
			c-1.339-0.514-2.8-1.121-4.097-1.735c-1.001-0.488-2.145-1.119-2.706-2.074c-0.035-0.061-0.052-0.091-0.052-0.091
			c-0.033-0.062-0.049-0.093-0.049-0.093c-0.031-0.063-0.045-0.095-0.045-0.095c-0.028-0.064-0.042-0.097-0.042-0.097
			c-0.341-0.863-0.283-1.723-0.192-2.591c0.303-2.274,1.072-5.145,1.45-7.411c0.919-5.3,1.248-10.943,1.547-16.314
			c0.157-4.032,0.933-25.648,1.145-29.138c0.119-2.479,0.986-13.639,1.186-16.326c0.191-3.072,0.291-6.324,0.183-9.399
			c-0.147-5.626-1.518-16.567-2.099-22.282c-0.337-3.385-0.63-7.632-0.793-11.033c-0.231-5.729-0.729-21.608-1.168-27.055
			c-0.616-8.839-1.822-19.162-2.94-27.979"/>
	</g>
</g>
<g id="AG-OUTLINE">
	<g id="POLYLINE_757_">
		
			<path fill="none" stroke="#FF6B6B" stroke-width="3.5" stroke-linecap="round" stroke-linejoin="round" stroke-miterlimit="10" d="
			M380.079,125.983c0.328,0.382,0.823,0.998,1.14,1.396l2.747,3.581l2.425,3.026c1.48,1.886,2.725,3.978,3.689,6.172
			c2.248,5.209,3.584,10.96,4.887,16.471c2.868,12.885,5.668,29.608,7.714,42.701c-1.154-1.562-2.671-3.793-4-5.178
			c-0.623-0.654-1.308-1.273-2.097-1.721c-1.345-0.784-3.066-0.972-4.578-1.232c-1.81-0.28-3.545-1.183-5.265-1.769
			c-1.596-0.558-3.285-0.854-4.975-0.864c-2.675-0.02-5.367,0.396-7.942,1.11c-1.79,0.513-3.575,1.182-5.11,2.254
			c-0.59,0.409-1.149,0.881-1.662,1.384c-0.69,0.66-1.482,1.635-2.138,2.332c-0.67,0.73-1.631,1.404-2.407,2.005
			c-0.586,0.457-1.206,1.058-1.628,1.621c-0.552,0.723-0.997,1.531-1.371,2.358c-0.769,1.722-1.253,3.583-1.445,5.459
			c-0.173-2.128-0.509-5.393-0.711-7.541c-0.196-2.365-0.309-4.788-0.046-7.151c0.255-2.329,0.872-4.642,1.572-6.874l2.027-6.162
			c2.355-7.023,2.738-15.342,4.294-22.558c0.741-3.608,2.788-9.452,3.937-13.014c0.589-1.808,1.324-4.725,1.897-6.541
			c0.51-1.535,1.107-3.281,2.349-4.358c0.895-0.743,1.971-0.964,3.04-1.258c0.647-0.171,1.367-0.409,1.859-0.806
			c0.07-0.056,0.093-0.075,0.093-0.075c0.068-0.058,0.09-0.078,0.09-0.078c0.066-0.061,0.087-0.082,0.087-0.082
			c0.064-0.064,0.085-0.085,0.085-0.085c0.062-0.066,0.082-0.089,0.082-0.089c0.531-0.607,0.794-1.289,0.99-2.008
			C379.916,127.621,380.016,126.795,380.079,125.983z"/>
	</g>
	<g id="POLYLINE_758_">
		
			<path fill="none" stroke="#FF6B6B" stroke-width="3.5" stroke-linecap="round" stroke-linejoin="round" stroke-miterlimit="10" d="
			M431.101,263.708c0.568-5.712,0.934-11.614,0.517-17.344c-0.314-4.648-1.188-9.349-2.193-13.895l-6.029-24.921l-6.732-30.745
			c-1.871-8.026-4.01-16.355-7.006-24.032c-2.546-6.754-6.758-14.311-10.153-20.723c-0.531-1.031-1.107-2.225-1.567-3.289
			c-0.733-1.736-1.582-3.816-2.437-5.47c-2.374-4.623-6.952-12.337-9.168-16.994c-1.352-2.815-2.57-5.755-3.231-8.815
			c-0.279-1.292-0.457-2.621-0.498-3.943c-0.086-2.262,0.262-4.981,0.471-7.244c0.125-1.736,0.324-3.771-0.53-5.337
			c-0.041-0.069-0.055-0.091-0.055-0.091c-0.043-0.066-0.057-0.087-0.057-0.087c-0.044-0.063-0.059-0.083-0.059-0.083
			c-0.046-0.059-0.061-0.078-0.061-0.078c-0.047-0.056-0.063-0.074-0.063-0.074c-0.065-0.069-0.081-0.085-0.081-0.085
			c-0.067-0.063-0.084-0.078-0.084-0.078c-0.069-0.056-0.087-0.07-0.087-0.07c-0.054-0.038-0.072-0.05-0.072-0.05
			c-0.055-0.034-0.073-0.044-0.073-0.044c-0.056-0.03-0.075-0.039-0.075-0.039c-0.067-0.029-0.077-0.033-0.077-0.033
			c-0.068-0.024-0.078-0.028-0.078-0.028c-0.07-0.019-0.08-0.022-0.08-0.022c-0.061-0.012-0.071-0.014-0.071-0.014
			c-0.062-0.008-0.072-0.009-0.072-0.009c-0.063-0.004-0.074-0.005-0.074-0.005c-0.064,0-0.075,0-0.075,0
			c-0.063,0.004-0.076,0.005-0.076,0.005c-0.064,0.008-0.077,0.01-0.077,0.01c-0.065,0.012-0.078,0.015-0.078,0.015
			c-0.052,0.012-0.079,0.019-0.079,0.019c-0.053,0.015-0.079,0.024-0.079,0.024c-0.053,0.018-0.08,0.028-0.08,0.028
			c-0.054,0.021-0.081,0.032-0.081,0.032c-0.054,0.024-0.081,0.036-0.081,0.036c-0.524,0.251-0.952,0.643-1.307,1.008
			c-0.499,0.526-0.904,1.083-1.222,1.654c-0.055-0.606-0.128-1.302-0.37-1.847c-0.033-0.069-0.041-0.086-0.041-0.086
			c-0.035-0.065-0.044-0.081-0.044-0.081c-0.037-0.062-0.047-0.077-0.047-0.077c-0.039-0.058-0.049-0.072-0.049-0.072
			c-0.052-0.067-0.063-0.08-0.063-0.08c-0.056-0.062-0.068-0.073-0.068-0.073c-0.06-0.056-0.073-0.067-0.073-0.067
			c-0.064-0.05-0.077-0.06-0.077-0.06c-0.068-0.045-0.083-0.053-0.083-0.053c-0.059-0.032-0.074-0.04-0.074-0.04
			c-0.063-0.029-0.079-0.035-0.079-0.035c-0.066-0.024-0.083-0.03-0.083-0.03c-0.069-0.02-0.086-0.025-0.086-0.025
			c-0.053-0.012-0.071-0.016-0.071-0.016c-0.054-0.01-0.073-0.013-0.073-0.013c-0.056-0.007-0.074-0.009-0.074-0.009
			c-0.057-0.005-0.076-0.006-0.076-0.006c-0.058-0.002-0.077-0.002-0.077-0.002c-0.058,0.001-0.078,0.001-0.078,0.001
			c-0.059,0.003-0.079,0.005-0.079,0.005c-0.06,0.006-0.08,0.008-0.08,0.008c-0.06,0.008-0.08,0.012-0.08,0.012
			c-0.061,0.011-0.081,0.015-0.081,0.015c-0.061,0.014-0.081,0.019-0.081,0.019c-0.061,0.016-0.081,0.022-0.081,0.022
			c-0.061,0.019-0.081,0.026-0.081,0.026c-0.061,0.022-0.081,0.03-0.081,0.03c-0.061,0.025-0.081,0.033-0.081,0.033
			c-0.061,0.027-0.081,0.037-0.081,0.037c-0.06,0.03-0.08,0.041-0.08,0.041c-0.06,0.033-0.079,0.044-0.079,0.044
			c-0.059,0.036-0.078,0.048-0.078,0.048c-0.058,0.038-0.077,0.052-0.077,0.052c-0.057,0.041-0.076,0.056-0.076,0.056
			c-0.056,0.044-0.075,0.059-0.075,0.059c-0.055,0.047-0.073,0.063-0.073,0.063c-0.054,0.05-0.072,0.067-0.072,0.067
			c-0.053,0.053-0.07,0.071-0.07,0.071c-0.051,0.056-0.068,0.075-0.068,0.075c-0.049,0.058-0.066,0.078-0.066,0.078
			c-0.4,0.512-0.581,1.065-0.731,1.635c-0.168,0.673-0.255,1.376-0.314,2.066c-0.177,2.035-0.092,5.926-0.111,8.009
			c-0.076,6.561-1.069,13.171-3.323,19.349c-1.84,5.095-5.044,10.38-7.672,15.128c-2.821,5.145-5.418,11.084-7.75,16.487
			c-2.061,4.829-5.068,11.982-6.934,16.832c-3.044,8.001-6.148,16.305-7.27,24.827c-0.375,2.87-1.071,8.739-1.58,11.473
			c-1.095,6.167-3.44,16.825-4.553,23.006c-1.307,7.173-2.333,14.591-2.789,21.868c-0.273,4.581-0.389,9.308,0.033,13.881
			c-0.413,1.667-1.05,3.847-1.25,5.531c-0.188,1.416-0.195,2.872-0.068,4.293c0.221,2.477,0.759,5.07,1.283,7.503
			c1.479,6.499,3.713,15.177,4.371,21.753c0.484,4.273,0.957,11.248,1.919,15.365c0.401,1.807,1.014,3.586,1.738,5.289l2.164,4.957
			c0.836,2.019,1.522,4.131,1.868,6.293c0.503,3.143,0.37,6.402,0.175,9.568c-0.176,2.532-0.75,8.3-0.728,10.754
			c0.006,0.747,0.037,1.513,0.172,2.249c0.101,0.581,0.324,1.254,0.579,1.756c0.348,0.708,0.852,1.407,1.218,2.102
			c-0.431,0.646-0.701,1.329-0.934,2.058c-0.334,1.067-0.545,2.203-0.714,3.308c-0.673,4.661-0.813,9.818-1.813,14.424
			c-1.165,5.66-4.328,11.53-6.742,16.763c-1.568,3.428-2.968,7.028-3.962,10.665c-2.169,7.938-3.154,16.251-3.66,24.45
			c-0.568,9.922-0.362,19.999,0.631,29.887c1.182,12.741,4.969,28.542,7.702,41.127c1.746,8.451,3.031,17.143,2.744,25.791
			c-0.074,2.398-0.275,4.9-0.575,7.281c-0.304,2.763-2.096,12.909-2.566,15.802c-0.729,4.731-1.265,9.589-1.13,14.378
			c0.221,7.81,2.129,15.55,4.248,23.037c3.481,11.771,7.748,25.561,9.75,37.604c0.415,2.461,0.725,5.029,0.797,7.526
			c0.043,0.755,0.08,1.593,0.346,2.299c0.028,0.07,0.042,0.104,0.042,0.104c0.03,0.067,0.046,0.101,0.046,0.101
			c0.032,0.065,0.049,0.097,0.049,0.097c0.035,0.063,0.053,0.094,0.053,0.094c0.038,0.061,0.057,0.091,0.057,0.091
			c0.04,0.059,0.061,0.088,0.061,0.088c0.043,0.057,0.066,0.085,0.066,0.085c0.046,0.055,0.07,0.082,0.07,0.082
			c0.049,0.053,0.075,0.079,0.075,0.079c0.052,0.051,0.08,0.076,0.08,0.076c0.056,0.049,0.085,0.072,0.085,0.072
			c0.059,0.047,0.09,0.069,0.09,0.069c0.063,0.044,0.095,0.066,0.095,0.066c0.102,0.065,0.12,0.075,0.171,0.103
			c0.178,0.098,0.347,0.166,0.477,0.214c0.924,4.016,1.692,8.157,1.824,12.283c0.084,2.529-0.23,5.16-0.568,7.664
			c-0.16,1.058-0.352,2.163-0.637,3.194c-0.102,0.364-0.238,0.807-0.395,1.134c-0.185,0.394-0.427,0.766-0.7,1.104
			c-0.808,0.988-1.831,1.702-2.926,2.321c-0.873,0.481-1.811,0.879-2.63,1.454c-1.067,0.723-2.11,1.76-2.29,3.046
			c-0.069,0.617-0.062,1.196-0.037,1.807c0.041,0.799,0.179,1.651,0.467,2.391c0.025,0.06,0.03,0.072,0.03,0.072
			c0.028,0.059,0.034,0.07,0.034,0.07c0.039,0.069,0.046,0.081,0.046,0.081c0.036,0.057,0.051,0.079,0.051,0.079
			c0.049,0.067,0.066,0.089,0.066,0.089c0.054,0.065,0.073,0.086,0.073,0.086c0.06,0.063,0.081,0.084,0.081,0.084
			c0.065,0.062,0.088,0.082,0.088,0.082c0.047,0.04,0.071,0.06,0.071,0.06c0.05,0.04,0.075,0.059,0.075,0.059
			c0.858,0.616,1.895,0.841,2.901,1.04c1.077,0.195,2.233,0.291,3.325,0.38c5.942,0.45,14.218,0.287,20.238,0.315
			c0.063-0.003,0.084-0.005,0.084-0.005c0.062-0.005,0.082-0.008,0.082-0.008c0.06-0.008,0.08-0.011,0.08-0.011
			c0.059-0.01,0.078-0.014,0.078-0.014c0.057-0.012,0.076-0.017,0.076-0.017c0.056-0.015,0.075-0.02,0.075-0.02
			c0.055-0.017,0.073-0.023,0.073-0.023c0.053-0.019,0.071-0.026,0.071-0.026c0.069-0.029,0.086-0.037,0.086-0.037
			c0.067-0.033,0.083-0.042,0.083-0.042c0.064-0.037,0.08-0.046,0.08-0.046c0.062-0.04,0.077-0.051,0.077-0.051
			c0.06-0.044,0.074-0.056,0.074-0.056c0.057-0.048,0.072-0.06,0.072-0.06c0.069-0.065,0.082-0.079,0.082-0.079
			c0.052-0.056,0.065-0.071,0.065-0.071c0.05-0.06,0.062-0.076,0.062-0.076c0.048-0.064,0.059-0.081,0.059-0.081
			c0.045-0.068,0.057-0.085,0.057-0.085c0.033-0.053,0.043-0.072,0.043-0.072c0.135-0.235,0.217-0.468,0.278-0.683
			c1.01,0.556,2.132,0.892,3.258,1.121c1.692,0.337,3.439,0.438,5.162,0.441c0.659-0.005,11.28,0.015,11.639-0.016
			c0.875-0.027,1.79-0.082,2.656-0.208c0.817-0.124,1.753-0.313,2.443-0.749c0.07-0.047,0.093-0.063,0.093-0.063
			c0.067-0.049,0.089-0.066,0.089-0.066c0.066-0.052,0.087-0.07,0.087-0.07c1.131-0.972,1.481-2.425,1.679-3.808
			c0.127-1.002,0.189-2.154-0.181-3.08c-0.029-0.068-0.039-0.091-0.039-0.091c-0.031-0.066-0.042-0.088-0.042-0.088
			c-0.033-0.063-0.044-0.084-0.044-0.084c-0.035-0.061-0.047-0.081-0.047-0.081c-0.037-0.059-0.049-0.078-0.049-0.078
			c-0.039-0.056-0.052-0.074-0.052-0.074c-0.041-0.054-0.055-0.071-0.055-0.071c-0.057-0.068-0.072-0.085-0.072-0.085
			c-0.062-0.067-0.078-0.084-0.078-0.084c-0.67-0.652-1.443-0.976-2.266-1.306c-1.426-0.56-3.045-0.797-4.359-1.609
			c-0.068-0.047-0.084-0.059-0.084-0.059c-0.062-0.047-0.076-0.059-0.076-0.059c-0.068-0.058-0.08-0.07-0.08-0.07
			c-0.068-0.069-0.079-0.081-0.079-0.081c-0.055-0.068-0.059-0.074-0.059-0.074c-0.042-0.068-0.045-0.073-0.045-0.073
			c-0.029-0.068-0.034-0.08-0.034-0.08c-0.022-0.065-0.03-0.094-0.03-0.094c-0.017-0.061-0.025-0.094-0.025-0.094
			c-0.219-1.022-0.24-2.127-0.3-3.167c-0.085-1.593-0.048-3.224,0.266-4.79c0.138-0.706,0.329-1.419,0.567-2.098
			c0.286-0.743,0.528-1.524,0.722-2.297c0.913-3.679,1.54-7.745,2.132-11.494c0.129-0.046,0.224-0.089,0.298-0.126
			c0.07-0.036,0.092-0.048,0.092-0.048c0.068-0.038,0.09-0.052,0.09-0.052c0.065-0.041,0.087-0.055,0.087-0.055
			c0.063-0.043,0.084-0.058,0.084-0.058c0.061-0.046,0.082-0.062,0.082-0.062c0.06-0.048,0.079-0.065,0.079-0.065
			c0.058-0.051,0.077-0.068,0.077-0.068c0.056-0.053,0.074-0.071,0.074-0.071c0.054-0.056,0.072-0.074,0.072-0.074
			c0.052-0.058,0.069-0.078,0.069-0.078c0.051-0.06,0.067-0.081,0.067-0.081c0.033-0.042,0.065-0.084,0.065-0.084
			c0.032-0.043,0.063-0.087,0.063-0.087c0.031-0.045,0.061-0.09,0.061-0.09c0.03-0.046,0.059-0.093,0.059-0.093
			c0.029-0.048,0.057-0.097,0.057-0.097c0.028-0.049,0.055-0.1,0.055-0.1c0.027-0.051,0.054-0.103,0.054-0.103
			c0.026-0.052,0.052-0.106,0.052-0.106c0.025-0.054,0.05-0.109,0.05-0.109c0.025-0.056,0.049-0.112,0.049-0.112
			c0.024-0.057,0.047-0.115,0.047-0.115c0.023-0.059,0.046-0.118,0.046-0.118s0.045-0.121,0.045-0.121s0.043-0.124,0.043-0.124
			c0.221-0.643,0.379-1.369,0.514-2.038c0.641-3.735,1.421-7.477,2.409-11.122c3.529-13.258,9.057-29.764,12.137-43.08
			c1.48-6.442,2.658-13.071,2.958-19.679c0.168-3.605,0.065-7.289-0.323-10.877c-0.596-5.706-2.051-12.952-2.433-18.664
			c-0.152-2.188-0.193-4.444-0.058-6.632c0.195-3.248,0.724-6.54,1.407-9.72c1.293-6.089,4.347-16.005,6.064-22.102
			c1.436-5.222,2.999-11.33,4.107-16.616c2.915-13.544,4.298-27.577,4.183-41.429c-0.085-9.287-0.773-18.777-2.56-27.898
			c-1.176-6.317-3.804-16.118-4.922-22.446c-0.712-4.026-1.233-8.237-1.376-12.325c-0.078-2.608-0.039-5.28,0.42-7.855
			c0,0,0.042-0.221,0.042-0.221s0.043-0.217,0.043-0.217l0.09-0.423l0.353-1.548l0.038-0.177l0.035-0.174l0.032-0.17
			c0,0,0.029-0.167,0.029-0.167s0.013-0.082,0.013-0.082s0.012-0.081,0.012-0.081s0.011-0.08,0.011-0.08s0.01-0.079,0.01-0.079
			s0.009-0.079,0.009-0.079s0.008-0.078,0.008-0.078s0.007-0.077,0.007-0.077s0.006-0.076,0.006-0.076s0.004-0.075,0.004-0.075
			s0.003-0.074,0.003-0.074c0.001-0.037,0.002-0.073,0.002-0.073c0-0.036,0-0.072,0-0.072c0-0.036-0.001-0.072-0.001-0.072
			c-0.001-0.035-0.002-0.071-0.002-0.071c-0.004-0.07-0.007-0.104-0.007-0.104c-0.006-0.069-0.01-0.103-0.01-0.103
			c-0.009-0.067-0.014-0.101-0.014-0.101c-0.011-0.066-0.018-0.099-0.018-0.099c-0.014-0.065-0.022-0.097-0.022-0.097
			c-0.017-0.063-0.026-0.095-0.026-0.095c-0.019-0.062-0.03-0.093-0.03-0.093c-0.022-0.061-0.034-0.091-0.034-0.091
			c-0.025-0.06-0.039-0.089-0.039-0.089c-0.029-0.058-0.036-0.073-0.036-0.073c-0.031-0.057-0.039-0.072-0.039-0.072
			c-0.034-0.056-0.043-0.07-0.043-0.07c0.152-1.106,0.561-2.778,0.665-3.847c0.117-0.958,0.144-1.954,0.133-2.919
			c-0.085-3.77-0.358-8.209-0.036-11.953c0.347-4.704,1.54-9.373,2.838-13.896c1.782-5.931,5.565-17.644,6.867-23.514
			c1.667-7.308,2.927-14.877,3.133-22.379c0.03-1.772-0.001-3.594-0.254-5.349c-0.162-1.147-0.44-2.297-0.782-3.404L431.101,263.708
			z"/>
	</g>
</g>
</svg>
